<!-- favicon-rounded.svg -->
<svg xmlns="http://www.w3.org/2000/svg" viewBox="0 0 64 64" role="img" aria-labelledby="title desc">
  <title>Cooked App</title>
  <desc>Rounded colorful cooking app icon</desc>

  <!-- Rounded gradient background -->
  <defs>
    <radialGradient id="bgGradient" cx="50%" cy="40%" r="70%">
      <stop offset="0%" stop-color="#FFD580"/>
      <stop offset="100%" stop-color="#FF6F61"/>
    </radialGradient>
  </defs>
  <circle cx="32" cy="32" r="30" fill="url(#bgGradient)" />

  <!-- Pot body -->
  <rect x="14" y="30" width="36" height="18" rx="4" ry="4" fill="#4A90E2"/>
  <!-- Handles -->
  <rect x="10" y="34" width="6" height="8" rx="2" ry="2" fill="#357ABD"/>
  <rect x="48" y="34" width="6" height="8" rx="2" ry="2" fill="#357ABD"/>
  <!-- Lid -->
  <rect x="20" y="26" width="24" height="4" rx="2" ry="2" fill="#F5A623"/>
  <circle cx="32" cy="24" r="2.5" fill="#D48806"/>

  <!-- Steam -->
  <path d="M26 16c0 3 4 3 4 6s-4 3-4 6" fill="none" stroke="#fff" stroke-width="3" stroke-linecap="round"/>
  <path d="M32 14c0 3 4 3 4 6s-4 3-4 6" fill="none" stroke="#fff" stroke-width="3" stroke-linecap="round"/>
  <path d="M38 16c0 3 4 3 4 6s-4 3-4 6" fill="none" stroke="#fff" stroke-width="3" stroke-linecap="round"/>
</svg>
